name rise30.6535peak61.5555fall82.9339.mot
datacolumns 19
datarows 17
range 2.03998400000000 2.06666900000000
endheader
time	ground_force1_vx	ground_force1_vy	ground_force1_vz	ground_force1_px	ground_force1_py	ground_force1_pz	ground_force2_vx	ground_force2_vy	ground_force2_vz	ground_force2_px	ground_force2_py	ground_force2_pz	ground_torque1_x	ground_torque1_y	ground_torque1_z	ground_torque2_x	ground_torque2_y	ground_torque2_z	
2.03998400000000	-3.43606600000000	42.88528000000000	-11.66958400000000	0.30032100000000	0.00000000000000	0.09285700000000	-48.24825800000000	799.28173500000003	-56.56990100000000	0.10228600000000	0.00000000000000	-0.09583600000000	0.00000000000000	-7.62441100000000	0.00000000000000	0.00000000000000	-18.67948500000000	0.00000000000000	
2.04166700000000	-3.65883000000000	50.13992600000000	-13.12499800000000	0.30510300000000	0.00000000000000	0.09387400000000	-48.66545500000000	796.66457900000000	-56.24674600000000	0.10163600000000	0.00000000000000	-0.09570000000000	0.00000000000000	-8.66614000000000	0.00000000000000	0.00000000000000	-18.61464300000000	0.00000000000000	
2.04332000000000	-3.78401600000000	57.45241900000000	-14.44879300000000	0.30940200000000	0.00000000000000	0.09481400000000	-49.10385400000000	793.93989499999998	-55.90636300000000	0.10098300000000	0.00000000000000	-0.09556100000000	0.00000000000000	-9.63728600000000	0.00000000000000	0.00000000000000	-18.55323400000000	0.00000000000000	
2.04499300000000	-3.80075300000000	64.72562600000001	-15.61025500000000	0.31329500000000	0.00000000000000	0.09568600000000	-49.56368200000000	791.10552700000005	-55.54865600000000	0.10032700000000	0.00000000000000	-0.09541800000000	0.00000000000000	-10.51582500000000	0.00000000000000	0.00000000000000	-18.49535000000000	0.00000000000000	
2.04667000000000	-3.70273000000000	71.88680700000000	-16.58906800000000	0.31684500000000	0.00000000000000	0.09650100000000	-50.04504700000000	788.15920800000004	-55.17353300000000	0.09966900000000	0.00000000000000	-0.09527200000000	0.00000000000000	-11.28648800000000	0.00000000000000	0.00000000000000	-18.44106000000000	0.00000000000000	
2.04832600000000	-3.48805900000000	78.88973700000000	-17.37544100000000	0.32010500000000	0.00000000000000	0.09726500000000	-50.54794300000000	785.09856700000000	-54.78090600000000	0.09901000000000	0.00000000000000	-0.09512300000000	0.00000000000000	-11.94100000000000	0.00000000000000	0.00000000000000	-18.39041200000000	0.00000000000000	
2.04999200000000	-3.15881600000000	85.71430900000000	-17.96936200000000	0.32311500000000	0.00000000000000	0.09798500000000	-51.07223500000000	781.92113800000004	-54.37069500000000	0.09834900000000	0.00000000000000	-0.09496900000000	0.00000000000000	-12.47770100000000	0.00000000000000	0.00000000000000	-18.34342300000000	0.00000000000000	
2.05166500000000	-2.72033500000000	92.36404000000000	-18.37917500000000	0.32591000000000	0.00000000000000	0.09866500000000	-51.61766700000000	778.62436800000000	-53.94282500000000	0.09768800000000	0.00000000000000	-0.09481300000000	0.00000000000000	-12.90069100000000	0.00000000000000	0.00000000000000	-18.30008900000000	0.00000000000000	
2.05332600000000	-2.18035800000000	98.86207300000000	-18.61971500000000	0.32851800000000	0.00000000000000	0.09931100000000	-52.18384900000000	775.20562299999995	-53.49723100000000	0.09702800000000	0.00000000000000	-0.09465300000000	0.00000000000000	-13.21865100000000	0.00000000000000	0.00000000000000	-18.26037800000000	0.00000000000000	
2.05498500000000	-1.54814400000000	105.24625200000000	-18.71024300000000	0.33096400000000	0.00000000000000	0.09992500000000	-52.77026500000000	771.66220199999998	-53.03385800000000	0.09636800000000	0.00000000000000	-0.09448900000000	0.00000000000000	-13.44347900000000	0.00000000000000	0.00000000000000	-18.22423000000000	0.00000000000000	
2.05666100000000	-0.83361200000000	111.56384799999999	-18.67236800000000	0.33326600000000	0.00000000000000	0.10051100000000	-53.37626300000000	767.99134600000002	-52.55266100000000	0.09570900000000	0.00000000000000	-0.09432200000000	0.00000000000000	-13.58891600000000	0.00000000000000	0.00000000000000	-18.19156000000000	0.00000000000000	
2.05832700000000	-0.04657800000000	117.86642000000001	-18.52814500000000	0.33544100000000	0.00000000000000	0.10107200000000	-54.00105800000000	764.19024999999999	-52.05360800000000	0.09505200000000	0.00000000000000	-0.09415100000000	0.00000000000000	-13.66924300000000	0.00000000000000	0.00000000000000	-18.16225600000000	0.00000000000000	
2.05998500000000	0.80386100000000	124.20520900000000	-18.29846100000000	0.33750400000000	0.00000000000000	0.10161000000000	-54.64373200000000	760.25607600000001	-51.53668300000000	0.09439800000000	0.00000000000000	-0.09397600000000	0.00000000000000	-13.69816700000000	0.00000000000000	0.00000000000000	-18.13617800000000	0.00000000000000	
2.06167700000000	1.70977400000000	130.62731900000000	-18.00178700000000	0.33946500000000	0.00000000000000	0.10212600000000	-55.30323200000000	756.18596500000001	-51.00188500000000	0.09374800000000	0.00000000000000	-0.09379800000000	0.00000000000000	-13.68793800000000	0.00000000000000	0.00000000000000	-18.11316000000000	0.00000000000000	
2.06332300000000	2.66467500000000	137.17285899999999	-17.65333200000000	0.34133400000000	0.00000000000000	0.10262300000000	-55.97837200000000	751.97704999999996	-50.44923000000000	0.09310100000000	0.00000000000000	-0.09361700000000	0.00000000000000	-13.64873100000000	0.00000000000000	0.00000000000000	-18.09300900000000	0.00000000000000	
2.06499100000000	3.66363800000000	143.87308100000001	-17.26459500000000	0.34311900000000	0.00000000000000	0.10310200000000	-56.66783300000000	747.62647500000003	-49.87875700000000	0.09245900000000	0.00000000000000	-0.09343200000000	0.00000000000000	-13.58829600000000	0.00000000000000	0.00000000000000	-18.07550700000000	0.00000000000000	
2.06666900000000	4.70326600000000	150.74948400000000	-16.84326600000000	0.34482800000000	0.00000000000000	0.10356500000000	-57.37016600000000	743.13140599999997	-49.29052300000000	0.09182200000000	0.00000000000000	-0.09324300000000	0.00000000000000	-13.51184700000000	0.00000000000000	0.00000000000000	-18.06040900000000	0.00000000000000	
